<svg xmlns="http://www.w3.org/2000/svg" viewBox="0 0 1200 630" width="1200" height="630">
  <defs>
    <linearGradient id="bg" x1="0" y1="0" x2="1" y2="1">
      <stop offset="0%" stop-color="#05060a"/>
      <stop offset="100%" stop-color="#0a0b12"/>
    </linearGradient>
    <radialGradient id="glow" cx="20%" cy="0%" r="60%">
      <stop offset="0%" stop-color="#5ef2ff" stop-opacity="0.18"/>
      <stop offset="100%" stop-color="#5ef2ff" stop-opacity="0"/>
    </radialGradient>
    <radialGradient id="glow2" cx="100%" cy="100%" r="60%">
      <stop offset="0%" stop-color="#ff3db1" stop-opacity="0.12"/>
      <stop offset="100%" stop-color="#ff3db1" stop-opacity="0"/>
    </radialGradient>
    <pattern id="grid" width="32" height="32" patternUnits="userSpaceOnUse">
      <path d="M 32 0 L 0 0 0 32" fill="none" stroke="#5ef2ff" stroke-opacity="0.06" stroke-width="1"/>
    </pattern>
  </defs>
  <rect width="1200" height="630" fill="url(#bg)"/>
  <rect width="1200" height="630" fill="url(#grid)"/>
  <rect width="1200" height="630" fill="url(#glow)"/>
  <rect width="1200" height="630" fill="url(#glow2)"/>

  <!-- Top bar -->
  <g>
    <circle cx="56" cy="48" r="6" fill="#ff2e63"/>
    <circle cx="78" cy="48" r="6" fill="#ffb94a"/>
    <circle cx="100" cy="48" r="6" fill="#5ef2ff"/>
    <text x="140" y="54" fill="#8895a8" font-family="'JetBrains Mono', 'SF Mono', monospace" font-size="16" letter-spacing="4">INDULOHITH@SECOPS — ZSH</text>
  </g>

  <!-- Main -->
  <g font-family="'JetBrains Mono', 'SF Mono', monospace">
    <text x="56" y="150" fill="#ff3db1" font-size="28">$</text>
    <text x="92" y="150" fill="#d6e1ea" font-size="28">whoami --one-line</text>

    <text x="56" y="230" fill="#5ef2ff" font-size="72" font-weight="700">Indu Lohith</text>
    <text x="56" y="310" fill="#5ef2ff" font-size="72" font-weight="700">Narisetty</text>

    <text x="56" y="380" fill="#ff3db1" font-size="30" font-weight="600">Senior Security Operations Engineer</text>

    <text x="56" y="440" fill="#d6e1ea" font-size="22">I build high-fidelity SIEM detections, lead IR,</text>
    <text x="56" y="472" fill="#d6e1ea" font-size="22">and automate SOC workflows.</text>

    <!-- chips -->
    <g font-size="18">
      <g transform="translate(56,520)">
        <rect x="0" y="0" width="180" height="36" rx="4" fill="#0a0b12" stroke="#5ef2ff" stroke-opacity="0.5"/>
        <text x="16" y="24" fill="#5ef2ff">Splunk SPL</text>
      </g>
      <g transform="translate(250,520)">
        <rect x="0" y="0" width="200" height="36" rx="4" fill="#0a0b12" stroke="#5ef2ff" stroke-opacity="0.5"/>
        <text x="16" y="24" fill="#5ef2ff">Sentinel KQL</text>
      </g>
      <g transform="translate(464,520)">
        <rect x="0" y="0" width="160" height="36" rx="4" fill="#0a0b12" stroke="#ff3db1" stroke-opacity="0.5"/>
        <text x="16" y="24" fill="#ff3db1">MITRE ATT&amp;CK</text>
      </g>
      <g transform="translate(638,520)">
        <rect x="0" y="0" width="150" height="36" rx="4" fill="#0a0b12" stroke="#ffb94a" stroke-opacity="0.5"/>
        <text x="16" y="24" fill="#ffb94a">CrowdStrike</text>
      </g>
      <g transform="translate(802,520)">
        <rect x="0" y="0" width="140" height="36" rx="4" fill="#0a0b12" stroke="#ffb94a" stroke-opacity="0.5"/>
        <text x="16" y="24" fill="#ffb94a">Defender</text>
      </g>
      <g transform="translate(956,520)">
        <rect x="0" y="0" width="100" height="36" rx="4" fill="#0a0b12" stroke="#ffb94a" stroke-opacity="0.5"/>
        <text x="16" y="24" fill="#ffb94a">AWS</text>
      </g>
    </g>

    <!-- bottom URL -->
    <text x="56" y="600" fill="#5ef2ff" font-size="18" opacity="0.7">indulohithnarisetty.com</text>
  </g>
</svg>
